HIERARCHY
ROOT root
{
	OFFSET 0.000000 0.000000 0.000000
	CHANNELS 6 Xposition Yposition Zposition Zrotation Yrotation Xrotation
	JOINT lhip
	{
		OFFSET 0.058581 -0.082280 -0.017664
		CHANNELS 3 Zrotation Yrotation Xrotation
		JOINT lknee
		{
			OFFSET 0.043451 -0.386469 0.008037
			CHANNELS 3 Zrotation Yrotation Xrotation
			JOINT lankle
			{
				OFFSET -0.014790 -0.426874 -0.037428
				CHANNELS 3 Zrotation Yrotation Xrotation
				JOINT ltoe
				{
					OFFSET 0.041054 -0.060286 0.122042
					CHANNELS 3 Zrotation Yrotation Xrotation
					End Site
					{
						OFFSET 0.000000 0.000000 0.000000
					}
				}
			}
		}
	}
	JOINT rhip
	{
		OFFSET -0.060310 -0.090513 -0.013543
		CHANNELS 3 Zrotation Yrotation Xrotation
		JOINT rknee
		{
			OFFSET -0.043257 -0.383688 -0.004843
			CHANNELS 3 Zrotation Yrotation Xrotation
			JOINT rankle
			{
				OFFSET 0.019056 -0.420046 -0.034562
				CHANNELS 3 Zrotation Yrotation Xrotation
				JOINT rtoe
				{
					OFFSET -0.034840 -0.062106 0.130323
					CHANNELS 3 Zrotation Yrotation Xrotation
					End Site
					{
						OFFSET 0.000000 0.000000 0.000000
					}
				}
			}
		}
	}
	JOINT lowerback
	{
		OFFSET 0.004439 0.124404 -0.038385
		CHANNELS 3 Zrotation Yrotation Xrotation
		JOINT upperback
		{
			OFFSET 0.004488 0.137956 0.026820
			CHANNELS 3 Zrotation Yrotation Xrotation
			JOINT chest
			{
				OFFSET -0.002265 0.056032 0.002855
				CHANNELS 3 Zrotation Yrotation Xrotation
				JOINT lowerneck
				{
					OFFSET -0.013390 0.211636 -0.033468
					CHANNELS 3 Zrotation Yrotation Xrotation
					JOINT upperneck
					{
						OFFSET 0.010113 0.088937 0.050410
						CHANNELS 3 Zrotation Yrotation Xrotation
						End Site
						{
							OFFSET 0.000000 0.000000 0.000000
						}
					}
				}
				JOINT lclavicle
				{
					OFFSET 0.071702 0.114000 -0.018898
					CHANNELS 3 Zrotation Yrotation Xrotation
					JOINT lshoulder
					{
						OFFSET 0.122921 0.045205 -0.019046
						CHANNELS 3 Zrotation Yrotation Xrotation
						JOINT lelbow
						{
							OFFSET 0.255332 -0.015649 -0.022946
							CHANNELS 3 Zrotation Yrotation Xrotation
							JOINT lwrist
							{
								OFFSET 0.265709 0.012698 -0.007375
								CHANNELS 3 Zrotation Yrotation Xrotation
								End Site
								{
									OFFSET 0.000000 0.000000 0.000000
								}
							}
						}
					}
				}
				JOINT rclavicle
				{
					OFFSET -0.082954 0.112472 -0.023707
					CHANNELS 3 Zrotation Yrotation Xrotation
					JOINT rshoulder
					{
						OFFSET -0.113228 0.046853 -0.008472
						CHANNELS 3 Zrotation Yrotation Xrotation
						JOINT relbow
						{
							OFFSET -0.260127 -0.014369 -0.031269
							CHANNELS 3 Zrotation Yrotation Xrotation
							JOINT rwrist
							{
								OFFSET -0.269108 0.006794 -0.006027
								CHANNELS 3 Zrotation Yrotation Xrotation
								End Site
								{
									OFFSET 0.000000 0.000000 0.000000
								}
							}
						}
					}
				}
			}
		}
	}
}
MOTION
Frames: 11
Frame Time: 0.033333
0.065385 0.761544 0.956627 -31.074562 -8.414265 101.747114 14.234184 4.894238 0.838919 0.501319 3.150550 6.866229 -6.253645 11.795391 10.173800 0.000000 -0.000000 0.000000 -16.402472 -3.442090 -33.908656 0.394585 -4.835946 29.036066 4.787952 3.523597 -12.607314 0.000000 -0.000000 0.000000 8.861111 -4.296447 21.375766 0.533144 4.144904 -0.516032 -1.197942 2.748615 3.178639 4.165371 12.344303 -5.725613 -4.945053 -1.254593 -10.064027 -21.910663 8.948209 -11.556812 -57.446657 0.701400 -1.229450 45.454079 -25.733223 -67.193314 40.560227 -7.881563 -32.893197 26.542997 17.486826 -0.335420 61.608387 24.651167 24.082766 118.742365 79.564226 128.679899 -23.119122 20.445829 6.463361 
0.064552 0.760305 0.956666 -30.572967 -8.768010 101.712504 14.019998 4.789777 0.641141 0.518351 2.930799 6.763140 -6.046577 11.641465 10.965268 0.000000 -0.000000 0.000000 -16.682698 -3.780234 -33.701417 0.358630 -4.703143 29.093248 4.660306 3.314549 -13.005648 0.000000 -0.000000 0.000000 9.159978 -4.372434 21.237664 0.359434 4.016863 -0.618436 -1.319198 2.699132 3.199986 3.159087 13.592534 -6.187437 -5.881823 0.717566 -9.130950 -21.989011 8.972091 -11.657143 -57.229245 0.915183 -1.379248 45.731000 -26.268256 -66.584416 39.807900 -7.863044 -33.184765 26.620627 17.232750 -0.197152 60.838453 25.057768 23.916975 119.635584 79.278609 129.584864 -21.717190 19.856407 6.243500 
0.063044 0.759802 0.956555 -30.240644 -8.861614 101.623531 14.155416 4.802400 0.629775 0.415064 2.761729 6.545140 -5.984042 11.538915 11.863848 0.000000 -0.000000 0.000000 -16.719062 -3.696968 -33.530850 0.202562 -4.765228 29.211259 4.726299 3.144917 -13.252620 0.000000 -0.000000 0.000000 9.178939 -4.489686 21.307742 0.208559 4.140945 -0.916390 -1.322759 2.863592 3.262621 1.857742 15.891054 -6.213461 -6.663473 2.914513 -9.071858 -21.768261 9.126713 -11.747689 -57.145786 0.931838 -1.383410 45.931638 -26.843508 -65.983222 39.716594 -7.714377 -33.313549 26.882532 16.856426 0.095281 60.734347 25.562880 23.971569 119.818561 79.445405 130.007962 -21.855041 19.688610 5.583126 
0.062282 0.759099 0.957300 -29.726298 -9.098811 101.421521 13.873100 4.856601 0.403428 0.747214 2.681053 6.643430 -5.993495 11.276318 12.661148 0.000000 -0.000000 0.000000 -16.872763 -3.908625 -33.134800 -0.046987 -4.930196 29.219485 4.645276 3.312315 -13.545520 0.000000 -0.000000 0.000000 9.535523 -4.483910 21.462499 -0.161143 4.038431 -0.930415 -1.597247 3.017909 3.007687 0.299562 18.879558 -6.241945 -8.024718 5.190263 -9.222312 -21.640804 9.156942 -11.705954 -56.912806 0.655491 -1.264718 46.358776 -27.432265 -66.066652 40.039559 -7.831849 -32.916850 26.966126 16.467198 0.323361 61.306077 25.534964 24.069367 120.984307 79.816020 130.950751 -22.075832 20.121901 6.043654 
0.061437 0.758865 0.958196 -29.126894 -9.366972 101.400015 13.730581 4.775996 -0.100221 0.829292 2.666866 6.791107 -6.072461 11.128918 13.440967 0.000000 -0.000000 0.000000 -17.052441 -4.092197 -32.947618 -0.252419 -5.069943 29.223939 4.555362 3.286489 -13.772520 0.000000 -0.000000 0.000000 9.984329 -4.347335 21.480499 -0.746216 4.209910 -1.009382 -1.860463 3.130742 2.609134 -1.633383 21.641378 -6.393916 -9.143570 7.205523 -9.695828 -21.548785 8.603195 -11.724912 -56.442239 0.739204 -1.270654 46.790571 -28.194020 -66.090796 39.594816 -8.435874 -32.924533 26.880381 16.547121 0.551157 61.336450 24.777178 23.431253 123.455726 79.795982 132.593251 -20.999349 20.267109 6.937070 
0.058540 0.759829 0.959000 -29.383063 -9.142142 101.323099 14.292988 5.339122 0.112903 0.498571 2.741758 6.602475 -6.309737 11.135616 14.226888 0.000000 -0.000000 0.000000 -16.532657 -3.231992 -33.057050 -0.708699 -4.893134 29.507871 4.326326 3.161699 -14.095487 0.000000 -0.000000 0.000000 9.992759 -3.887084 22.024453 -1.231680 4.995001 -0.944142 -1.974492 3.360434 2.028604 -3.304039 25.259894 -6.697489 -10.624755 9.517941 -9.476431 -21.488504 8.343679 -11.925275 -55.875127 0.597933 -0.872639 47.225635 -29.067231 -65.866171 39.719541 -8.586914 -33.021063 26.772529 16.326253 0.733198 61.556064 24.344230 23.110956 125.047260 79.689125 133.593552 -21.333903 20.257038 7.098910 
0.057697 0.759019 0.959736 -28.891484 -9.324798 101.365364 14.238817 5.304906 -0.186914 0.536131 2.865012 6.495650 -6.287406 10.819328 14.896660 0.000000 -0.000000 0.000000 -16.602119 -3.443995 -32.916000 -1.000007 -5.087082 29.456285 4.259668 3.195120 -14.373489 0.000000 -0.000000 0.000000 10.375127 -3.727121 21.994025 -1.758556 5.156528 -1.084599 -2.237419 3.616276 1.656266 -5.159037 28.395680 -6.683651 -11.873410 12.129257 -9.800807 -21.627055 8.067833 -12.087156 -55.437828 0.478045 -0.530377 48.022945 -29.824644 -65.889835 39.319023 -8.864473 -33.012135 26.640653 15.980984 1.033774 61.638531 24.024296 22.995803 127.620144 79.916949 136.435352 -20.920198 20.322125 6.659320 
0.056386 0.758706 0.960029 -28.514145 -9.437628 101.433810 14.262185 5.214826 -0.513667 0.585200 2.914375 6.544193 -6.265690 10.539595 15.419281 0.000000 -0.000000 0.000000 -16.670326 -3.643139 -32.912388 -1.060260 -5.280679 29.567278 4.218894 3.321646 -14.398711 0.000000 -0.000000 0.000000 10.533063 -3.611975 22.011229 -2.259728 5.369277 -1.323624 -2.493957 3.933019 1.427897 -6.443837 31.116243 -6.905779 -12.831139 14.107590 -9.487435 -21.379333 8.090271 -12.066836 -55.527874 0.033805 -0.334159 49.209748 -30.652304 -66.191502 38.533496 -9.288978 -33.103230 26.441975 15.612997 1.560700 61.899969 24.049596 22.816269 129.122875 79.965919 137.930469 -19.496564 19.945260 6.748799 
0.054468 0.758601 0.960320 -28.280475 -9.508298 101.408468 14.374194 5.158543 -0.661878 0.597695 2.870010 6.607867 -6.378425 10.463412 15.849159 0.000000 -0.000000 0.000000 -16.639478 -3.681405 -32.871882 -1.150185 -5.404693 29.771347 4.173246 3.380149 -14.507640 0.000000 -0.000000 0.000000 10.415030 -3.382141 22.089006 -2.603091 5.557815 -1.371833 -2.647635 4.084465 1.177300 -7.400641 32.954515 -7.260074 -13.350682 15.543675 -9.219630 -21.365942 8.083940 -12.102690 -55.295920 -0.251014 -0.121973 50.283908 -31.504485 -66.592947 38.142362 -9.552217 -33.105167 26.679933 15.459905 1.985173 61.661875 24.131765 22.817037 130.476169 79.977153 139.243890 -18.794648 19.644551 6.506285 
0.052643 0.758515 0.960495 -28.092704 -9.577562 101.572507 14.386268 5.121771 -0.970755 0.702515 2.735075 6.661931 -6.420042 10.553055 16.134804 0.000000 -0.000000 0.000000 -16.634860 -3.696895 -33.047793 -1.154090 -5.515628 29.969731 4.143116 3.274167 -14.621188 0.000000 -0.000000 0.000000 10.379993 -3.253090 21.915063 -2.982148 5.699786 -1.456698 -2.834654 4.249933 1.028947 -7.909576 33.766870 -7.198753 -13.286311 16.099514 -9.384651 -21.368678 7.870566 -12.165228 -54.784206 -0.307857 0.032005 50.893822 -32.217505 -66.903863 38.479370 -9.699149 -33.160120 26.408281 15.622720 2.138559 61.708522 23.947059 22.639487 130.118332 79.823080 138.743242 -19.566042 19.991809 6.458478 
0.050430 0.758582 0.960993 -27.973685 -9.490239 101.528296 14.686806 5.188853 -0.950047 0.640855 2.780517 6.629977 -6.600178 10.426818 16.547949 0.000000 -0.000000 0.000000 -16.464763 -3.624152 -33.032454 -1.140267 -5.622957 30.202251 4.036100 3.236908 -14.590712 0.000000 -0.000000 0.000000 10.198563 -3.207372 22.032882 -3.139753 5.826818 -1.656154 -2.892449 4.309906 1.011170 -7.810325 33.929365 -7.157389 -13.284870 16.070905 -9.268767 -21.391051 8.030588 -12.337079 -54.542723 -0.459525 0.188268 51.501493 -32.685605 -67.200911 38.058128 -10.019134 -32.958346 26.494049 15.638787 2.093523 61.425466 23.915125 22.869267 129.582286 79.721242 138.259303 -18.490613 19.643839 6.149867 
